<svg width="142" height="26" viewBox="0 0 142 26" fill="none" xmlns="http://www.w3.org/2000/svg">
<path d="M14.2188 17.4531H18.8906C18.7969 18.9844 18.375 20.3438 17.625 21.5312C16.8854 22.7188 15.849 23.6458 14.5156 24.3125C13.1927 24.9792 11.599 25.3125 9.73438 25.3125C8.27604 25.3125 6.96875 25.0625 5.8125 24.5625C4.65625 24.0521 3.66667 23.3229 2.84375 22.375C2.03125 21.4271 1.41146 20.2812 0.984375 18.9375C0.557292 17.5938 0.34375 16.0885 0.34375 14.4219V12.8438C0.34375 11.1771 0.5625 9.67188 1 8.32812C1.44792 6.97396 2.08333 5.82292 2.90625 4.875C3.73958 3.92708 4.73438 3.19792 5.89062 2.6875C7.04688 2.17708 8.33854 1.92188 9.76562 1.92188C11.6615 1.92188 13.2604 2.26562 14.5625 2.95312C15.875 3.64062 16.8906 4.58854 17.6094 5.79688C18.3385 7.00521 18.776 8.38021 18.9219 9.92188H14.2344C14.1823 9.00521 14 8.22917 13.6875 7.59375C13.375 6.94792 12.901 6.46354 12.2656 6.14062C11.6406 5.80729 10.8073 5.64062 9.76562 5.64062C8.98438 5.64062 8.30208 5.78646 7.71875 6.07812C7.13542 6.36979 6.64583 6.8125 6.25 7.40625C5.85417 8 5.55729 8.75 5.35938 9.65625C5.17188 10.5521 5.07812 11.6042 5.07812 12.8125V14.4219C5.07812 15.599 5.16667 16.6354 5.34375 17.5312C5.52083 18.4167 5.79167 19.1667 6.15625 19.7812C6.53125 20.3854 7.01042 20.8438 7.59375 21.1562C8.1875 21.4583 8.90104 21.6094 9.73438 21.6094C10.7135 21.6094 11.5208 21.4531 12.1562 21.1406C12.7917 20.8281 13.276 20.3646 13.6094 19.75C13.9531 19.1354 14.1562 18.3698 14.2188 17.4531ZM26.0781 1V25H21.5781V1H26.0781ZM25.4375 15.9531H24.2031C24.2135 14.776 24.3698 13.6927 24.6719 12.7031C24.974 11.7031 25.4062 10.8385 25.9688 10.1094C26.5312 9.36979 27.2031 8.79688 27.9844 8.39062C28.776 7.98438 29.651 7.78125 30.6094 7.78125C31.4427 7.78125 32.1979 7.90104 32.875 8.14062C33.5625 8.36979 34.151 8.74479 34.6406 9.26562C35.1406 9.77604 35.526 10.4479 35.7969 11.2812C36.0677 12.1146 36.2031 13.125 36.2031 14.3125V25H31.6719V14.2812C31.6719 13.5312 31.5625 12.9427 31.3438 12.5156C31.1354 12.0781 30.8281 11.7708 30.4219 11.5938C30.026 11.4062 29.5365 11.3125 28.9531 11.3125C28.3073 11.3125 27.7552 11.4323 27.2969 11.6719C26.849 11.9115 26.4896 12.2448 26.2188 12.6719C25.9479 13.0885 25.75 13.5781 25.625 14.1406C25.5 14.7031 25.4375 15.3073 25.4375 15.9531ZM47.4062 25.3125C46.0938 25.3125 44.9167 25.1042 43.875 24.6875C42.8333 24.2604 41.9479 23.6719 41.2188 22.9219C40.5 22.1719 39.9479 21.3021 39.5625 20.3125C39.1771 19.3125 38.9844 18.25 38.9844 17.125V16.5C38.9844 15.2188 39.1667 14.0469 39.5312 12.9844C39.8958 11.9219 40.4167 11 41.0938 10.2188C41.7812 9.4375 42.6146 8.83854 43.5938 8.42188C44.5729 7.99479 45.6771 7.78125 46.9062 7.78125C48.1042 7.78125 49.1667 7.97917 50.0938 8.375C51.0208 8.77083 51.7969 9.33333 52.4219 10.0625C53.0573 10.7917 53.5365 11.6667 53.8594 12.6875C54.1823 13.6979 54.3438 14.8229 54.3438 16.0625V17.9375H40.9062V14.9375H49.9219V14.5938C49.9219 13.9688 49.8073 13.4115 49.5781 12.9219C49.3594 12.4219 49.026 12.026 48.5781 11.7344C48.1302 11.4427 47.5573 11.2969 46.8594 11.2969C46.2656 11.2969 45.7552 11.4271 45.3281 11.6875C44.901 11.9479 44.5521 12.3125 44.2812 12.7812C44.0208 13.25 43.8229 13.8021 43.6875 14.4375C43.5625 15.0625 43.5 15.75 43.5 16.5V17.125C43.5 17.8021 43.5938 18.4271 43.7812 19C43.9792 19.5729 44.2552 20.0677 44.6094 20.4844C44.974 20.901 45.4115 21.224 45.9219 21.4531C46.4427 21.6823 47.0312 21.7969 47.6875 21.7969C48.5 21.7969 49.2552 21.6406 49.9531 21.3281C50.6615 21.0052 51.2708 20.5208 51.7812 19.875L53.9688 22.25C53.6146 22.7604 53.1302 23.25 52.5156 23.7188C51.9115 24.1875 51.1823 24.5729 50.3281 24.875C49.474 25.1667 48.5 25.3125 47.4062 25.3125ZM63.8906 21.7969C64.4427 21.7969 64.9323 21.6927 65.3594 21.4844C65.7865 21.2656 66.1198 20.9635 66.3594 20.5781C66.6094 20.1823 66.7396 19.7188 66.75 19.1875H70.9844C70.974 20.375 70.6562 21.4323 70.0312 22.3594C69.4062 23.276 68.5677 24 67.5156 24.5312C66.4635 25.0521 65.2865 25.3125 63.9844 25.3125C62.6719 25.3125 61.526 25.0938 60.5469 24.6562C59.5781 24.2188 58.7708 23.6146 58.125 22.8438C57.4792 22.0625 56.9948 21.1562 56.6719 20.125C56.349 19.0833 56.1875 17.9688 56.1875 16.7812V16.3281C56.1875 15.1302 56.349 14.0156 56.6719 12.9844C56.9948 11.9427 57.4792 11.0365 58.125 10.2656C58.7708 9.48438 59.5781 8.875 60.5469 8.4375C61.5156 8 62.651 7.78125 63.9531 7.78125C65.3385 7.78125 66.5521 8.04688 67.5938 8.57812C68.6458 9.10938 69.4688 9.86979 70.0625 10.8594C70.6667 11.8385 70.974 13 70.9844 14.3438H66.75C66.7396 13.7812 66.6198 13.2708 66.3906 12.8125C66.1719 12.3542 65.849 11.9896 65.4219 11.7188C65.0052 11.4375 64.4896 11.2969 63.875 11.2969C63.2188 11.2969 62.6823 11.4375 62.2656 11.7188C61.849 11.9896 61.526 12.3646 61.2969 12.8438C61.0677 13.3125 60.9062 13.849 60.8125 14.4531C60.7292 15.0469 60.6875 15.6719 60.6875 16.3281V16.7812C60.6875 17.4375 60.7292 18.0677 60.8125 18.6719C60.8958 19.276 61.0521 19.8125 61.2812 20.2812C61.5208 20.75 61.849 21.1198 62.2656 21.3906C62.6823 21.6615 63.224 21.7969 63.8906 21.7969ZM78.0938 0.984375V25H73.5938V0.984375H78.0938ZM88.75 8.09375L81.4062 16.4688L77.4688 20.4531L75.8281 17.2031L78.9531 13.2344L83.3438 8.09375H88.75ZM84.0781 25L79.0781 17.1875L82.1875 14.4688L89.2656 25H84.0781ZM105.656 21.0625V25H94.1719V21.0625H105.656ZM95.9062 2.25V25H90.8125V2.25H95.9062ZM113.047 8.09375V25H108.156V8.09375H113.047ZM107.859 3.71875C107.859 3.01042 108.109 2.43229 108.609 1.98438C109.109 1.52604 109.766 1.29688 110.578 1.29688C111.391 1.29688 112.047 1.52604 112.547 1.98438C113.057 2.43229 113.312 3.01042 113.312 3.71875C113.312 4.41667 113.057 4.99479 112.547 5.45312C112.047 5.90104 111.391 6.125 110.578 6.125C109.766 6.125 109.109 5.90104 108.609 5.45312C108.109 4.99479 107.859 4.41667 107.859 3.71875ZM125.562 20.2969C125.562 19.9844 125.464 19.7083 125.266 19.4688C125.078 19.2292 124.734 19.0104 124.234 18.8125C123.745 18.6146 123.052 18.4167 122.156 18.2188C121.312 18.0417 120.526 17.8125 119.797 17.5312C119.068 17.2396 118.432 16.8906 117.891 16.4844C117.349 16.0677 116.927 15.5781 116.625 15.0156C116.323 14.4427 116.172 13.7917 116.172 13.0625C116.172 12.3542 116.323 11.6823 116.625 11.0469C116.938 10.4115 117.385 9.84896 117.969 9.35938C118.562 8.86979 119.281 8.48438 120.125 8.20312C120.979 7.92188 121.948 7.78125 123.031 7.78125C124.521 7.78125 125.807 8.01562 126.891 8.48438C127.974 8.94271 128.807 9.58854 129.391 10.4219C129.974 11.2448 130.266 12.1875 130.266 13.25H125.391C125.391 12.8125 125.307 12.4323 125.141 12.1094C124.974 11.7865 124.719 11.5365 124.375 11.3594C124.031 11.1719 123.578 11.0781 123.016 11.0781C122.578 11.0781 122.193 11.1562 121.859 11.3125C121.536 11.4583 121.281 11.6615 121.094 11.9219C120.917 12.1823 120.828 12.4844 120.828 12.8281C120.828 13.0677 120.88 13.2865 120.984 13.4844C121.099 13.6719 121.271 13.849 121.5 14.0156C121.74 14.1719 122.047 14.3125 122.422 14.4375C122.807 14.5625 123.276 14.6823 123.828 14.7969C125.005 15.0156 126.078 15.3229 127.047 15.7188C128.026 16.1146 128.807 16.6615 129.391 17.3594C129.984 18.0573 130.281 18.9792 130.281 20.125C130.281 20.875 130.109 21.5625 129.766 22.1875C129.432 22.8125 128.948 23.3594 128.312 23.8281C127.677 24.2969 126.917 24.6615 126.031 24.9219C125.146 25.1823 124.146 25.3125 123.031 25.3125C121.438 25.3125 120.089 25.026 118.984 24.4531C117.88 23.8802 117.047 23.1615 116.484 22.2969C115.932 21.4219 115.656 20.526 115.656 19.6094H120.234C120.255 20.1719 120.396 20.6302 120.656 20.9844C120.927 21.3385 121.276 21.599 121.703 21.7656C122.13 21.9219 122.609 22 123.141 22C123.672 22 124.115 21.9271 124.469 21.7812C124.823 21.6354 125.094 21.4375 125.281 21.1875C125.469 20.9271 125.562 20.6302 125.562 20.2969ZM141.594 8.09375V11.5156H131.562V8.09375H141.594ZM133.859 3.90625H138.75V19.7031C138.75 20.1719 138.807 20.5312 138.922 20.7812C139.036 21.0312 139.224 21.2083 139.484 21.3125C139.745 21.4062 140.078 21.4531 140.484 21.4531C140.776 21.4531 141.026 21.4427 141.234 21.4219C141.443 21.401 141.635 21.375 141.812 21.3438V24.875C141.396 25.0104 140.953 25.1146 140.484 25.1875C140.016 25.2708 139.505 25.3125 138.953 25.3125C137.901 25.3125 136.99 25.1406 136.219 24.7969C135.458 24.4531 134.875 23.9115 134.469 23.1719C134.062 22.4219 133.859 21.4479 133.859 20.25V3.90625Z" fill="white"/>
</svg>
